<svg width="95" height="22" viewBox="0 0 95 22" fill="none" xmlns="http://www.w3.org/2000/svg">
<path d="M12.4997 12.2316L3.56665 1.54513H0.618055V16.3379H3.56665V5.76943L12.4997 16.3379H15.4483V1.54513H12.4997V12.2316Z" fill="white"/>
<path d="M28.38 3.60341C29.5251 3.60499 30.646 3.89367 31.6123 4.43582C32.5786 4.97796 33.3505 5.75126 33.838 6.66563C34.3256 7.58001 34.5087 8.59782 34.3662 9.60052C34.2236 10.6032 33.7611 11.5495 33.0326 12.3292H36.5221C37.3934 10.704 37.6135 8.86595 37.1464 7.11596C36.6794 5.36597 35.5528 3.80782 33.9513 2.69673C32.3497 1.58564 30.3682 0.987474 28.3311 1.0002C26.2941 1.01292 24.3223 1.6358 22.7387 2.76678L24.594 4.78911C25.6688 4.01771 27.0121 3.59712 28.3975 3.59829" fill="white"/>
<path d="M28.381 14.2643C27.235 14.2648 26.1125 13.9774 25.1447 13.4356C24.1769 12.8939 23.4039 12.1202 22.9159 11.205C22.4279 10.2899 22.2452 9.27103 22.3891 8.26759C22.533 7.26416 22.9975 6.31759 23.7284 5.53855H20.2389C19.3701 7.16302 19.1516 8.99956 19.619 10.7479C20.0863 12.4962 21.212 14.0529 22.8119 15.1633C24.4118 16.2737 26.3912 16.8722 28.4265 16.8609C30.4618 16.8495 32.4326 16.2291 34.0165 15.101L32.1613 13.0786C31.0872 13.8471 29.7462 14.2658 28.3636 14.2643" fill="white"/>
<path d="M49.16 0.984999L44.2355 8.35075L49.5695 16H46.2987L42.3245 10.1567L38.4605 16H35.3945L40.5815 8.37175L35.6832 0.984999H38.9225L42.5135 6.5815L46.0992 0.984999H49.16ZM52.7475 16H49.8705L55.257 0.984999H59.2365L64.5495 16H61.6095L60.4283 12.4667H53.9498L52.7475 16ZM54.7478 10.1147H59.6408L57.21 2.85925L54.7478 10.1147Z" fill="white"/>
<path d="M70.7968 16.0035H69.6733L73.6178 5.99H75.2033L79.1058 16.0035H77.9578L76.8973 13.27H71.8678L70.7968 16.0035ZM72.2528 12.29H76.5193L74.3983 6.8265L72.2528 12.29ZM81.0082 5.7555V7.18H79.7832V5.7555H81.0082ZM80.9172 8.2825V16H79.8742V8.2825H80.9172Z" fill="#C2C2C2"/>
</svg>
